<svg id="visual" viewBox="0 0 1300 150" width="1300" height="150" xmlns="http://www.w3.org/2000/svg" xmlns:xlink="http://www.w3.org/1999/xlink" version="1.1"><rect x="0" y="0" width="1300" height="150" fill="#F3FCF3"></rect><path d="M0 87L19.7 92.7C39.3 98.3 78.7 109.7 118 109.8C157.3 110 196.7 99 236.2 95.7C275.7 92.3 315.3 96.7 354.8 97.5C394.3 98.3 433.7 95.7 473 98.7C512.3 101.7 551.7 110.3 591 108.7C630.3 107 669.7 95 709 95.8C748.3 96.7 787.7 110.3 827 117C866.3 123.7 905.7 123.3 945.2 116.3C984.7 109.3 1024.3 95.7 1063.8 94.8C1103.3 94 1142.7 106 1182 106.8C1221.3 107.7 1260.7 97.3 1280.3 92.2L1300 87L1300 0L1280.3 0C1260.7 0 1221.3 0 1182 0C1142.7 0 1103.3 0 1063.8 0C1024.3 0 984.7 0 945.2 0C905.7 0 866.3 0 827 0C787.7 0 748.3 0 709 0C669.7 0 630.3 0 591 0C551.7 0 512.3 0 473 0C433.7 0 394.3 0 354.8 0C315.3 0 275.7 0 236.2 0C196.7 0 157.3 0 118 0C78.7 0 39.3 0 19.7 0L0 0Z" fill="#c0e6c0"></path><path d="M0 66L19.7 69.8C39.3 73.7 78.7 81.3 118 82.5C157.3 83.7 196.7 78.3 236.2 75.5C275.7 72.7 315.3 72.3 354.8 74.8C394.3 77.3 433.7 82.7 473 83.8C512.3 85 551.7 82 591 80.3C630.3 78.7 669.7 78.3 709 75C748.3 71.7 787.7 65.3 827 61.8C866.3 58.3 905.7 57.7 945.2 64C984.7 70.3 1024.3 83.7 1063.8 89.8C1103.3 96 1142.7 95 1182 92.2C1221.3 89.3 1260.7 84.7 1280.3 82.3L1300 80L1300 0L1280.3 0C1260.7 0 1221.3 0 1182 0C1142.7 0 1103.3 0 1063.8 0C1024.3 0 984.7 0 945.2 0C905.7 0 866.3 0 827 0C787.7 0 748.3 0 709 0C669.7 0 630.3 0 591 0C551.7 0 512.3 0 473 0C433.7 0 394.3 0 354.8 0C315.3 0 275.7 0 236.2 0C196.7 0 157.3 0 118 0C78.7 0 39.3 0 19.7 0L0 0Z" fill="#afe4af"></path><path d="M0 64L19.7 59.5C39.3 55 78.7 46 118 46.3C157.3 46.7 196.7 56.3 236.2 61.5C275.7 66.7 315.3 67.3 354.8 62.2C394.3 57 433.7 46 473 42.3C512.3 38.7 551.7 42.3 591 46.8C630.3 51.3 669.7 56.7 709 59.8C748.3 63 787.7 64 827 60C866.3 56 905.7 47 945.2 43.3C984.7 39.7 1024.3 41.3 1063.8 45.5C1103.3 49.7 1142.7 56.3 1182 55.8C1221.3 55.3 1260.7 47.7 1280.3 43.8L1300 40L1300 0L1280.3 0C1260.7 0 1221.3 0 1182 0C1142.7 0 1103.3 0 1063.8 0C1024.3 0 984.7 0 945.2 0C905.7 0 866.3 0 827 0C787.7 0 748.3 0 709 0C669.7 0 630.3 0 591 0C551.7 0 512.3 0 473 0C433.7 0 394.3 0 354.8 0C315.3 0 275.7 0 236.2 0C196.7 0 157.3 0 118 0C78.7 0 39.3 0 19.7 0L0 0Z" fill="#9fe29e"></path><path d="M0 42L19.7 41.5C39.3 41 78.7 40 118 36C157.3 32 196.7 25 236.2 21.2C275.7 17.3 315.3 16.7 354.8 16.3C394.3 16 433.7 16 473 19.7C512.3 23.3 551.7 30.7 591 33.3C630.3 36 669.7 34 709 32C748.3 30 787.7 28 827 28.7C866.3 29.3 905.7 32.7 945.2 30.8C984.7 29 1024.3 22 1063.8 19C1103.3 16 1142.7 17 1182 17.7C1221.3 18.3 1260.7 18.7 1280.3 18.8L1300 19L1300 0L1280.3 0C1260.7 0 1221.3 0 1182 0C1142.7 0 1103.3 0 1063.8 0C1024.3 0 984.7 0 945.2 0C905.7 0 866.3 0 827 0C787.7 0 748.3 0 709 0C669.7 0 630.3 0 591 0C551.7 0 512.3 0 473 0C433.7 0 394.3 0 354.8 0C315.3 0 275.7 0 236.2 0C196.7 0 157.3 0 118 0C78.7 0 39.3 0 19.7 0L0 0Z" fill="#8de08d"></path></svg>