<svg id="visual" viewBox="0 0 1300 650" width="1300" height="650" xmlns="http://www.w3.org/2000/svg" xmlns:xlink="http://www.w3.org/1999/xlink" version="1.1"><path d="M0 47L19.7 44.8C39.3 42.7 78.7 38.3 118 37.2C157.3 36 196.7 38 236.2 38C275.7 38 315.3 36 354.8 37.2C394.3 38.3 433.7 42.7 473 43.7C512.3 44.7 551.7 42.3 591 42.3C630.3 42.3 669.7 44.7 709 43.7C748.3 42.7 787.7 38.3 827 36.2C866.3 34 905.7 34 945.2 34C984.7 34 1024.3 34 1063.8 34C1103.3 34 1142.7 34 1182 34C1221.3 34 1260.7 34 1280.3 34L1300 34L1300 0L1280.3 0C1260.7 0 1221.3 0 1182 0C1142.7 0 1103.3 0 1063.8 0C1024.3 0 984.7 0 945.2 0C905.7 0 866.3 0 827 0C787.7 0 748.3 0 709 0C669.7 0 630.3 0 591 0C551.7 0 512.3 0 473 0C433.7 0 394.3 0 354.8 0C315.3 0 275.7 0 236.2 0C196.7 0 157.3 0 118 0C78.7 0 39.3 0 19.7 0L0 0Z" fill="#8de08d"></path><path d="M0 118L19.7 113.7C39.3 109.3 78.7 100.7 118 96.3C157.3 92 196.7 92 236.2 95.3C275.7 98.7 315.3 105.3 354.8 108.7C394.3 112 433.7 112 473 108.7C512.3 105.3 551.7 98.7 591 96.5C630.3 94.3 669.7 96.7 709 97.8C748.3 99 787.7 99 827 100C866.3 101 905.7 103 945.2 105.2C984.7 107.3 1024.3 109.7 1063.8 108.7C1103.3 107.7 1142.7 103.3 1182 103.3C1221.3 103.3 1260.7 107.7 1280.3 109.8L1300 112L1300 32L1280.3 32C1260.7 32 1221.3 32 1182 32C1142.7 32 1103.3 32 1063.8 32C1024.3 32 984.7 32 945.2 32C905.7 32 866.3 32 827 34.2C787.7 36.3 748.3 40.7 709 41.7C669.7 42.7 630.3 40.3 591 40.3C551.7 40.3 512.3 42.7 473 41.7C433.7 40.7 394.3 36.3 354.8 35.2C315.3 34 275.7 36 236.2 36C196.7 36 157.3 34 118 35.2C78.7 36.3 39.3 40.7 19.7 42.8L0 45Z" fill="#69d76c"></path><path d="M0 255L19.7 252.8C39.3 250.7 78.7 246.3 118 246.3C157.3 246.3 196.7 250.7 236.2 253.8C275.7 257 315.3 259 354.8 261.2C394.3 263.3 433.7 265.7 473 262.5C512.3 259.3 551.7 250.7 591 250.7C630.3 250.7 669.7 259.3 709 262.5C748.3 265.7 787.7 263.3 827 262.2C866.3 261 905.7 261 945.2 261C984.7 261 1024.3 261 1063.8 258.8C1103.3 256.7 1142.7 252.3 1182 246.8C1221.3 241.3 1260.7 234.7 1280.3 231.3L1300 228L1300 110L1280.3 107.8C1260.7 105.7 1221.3 101.3 1182 101.3C1142.7 101.3 1103.3 105.7 1063.8 106.7C1024.3 107.7 984.7 105.3 945.2 103.2C905.7 101 866.3 99 827 98C787.7 97 748.3 97 709 95.8C669.7 94.7 630.3 92.3 591 94.5C551.7 96.7 512.3 103.3 473 106.7C433.7 110 394.3 110 354.8 106.7C315.3 103.3 275.7 96.7 236.2 93.3C196.7 90 157.3 90 118 94.3C78.7 98.7 39.3 107.3 19.7 111.7L0 116Z" fill="#4ac352"></path><path d="M0 398L19.7 394.7C39.3 391.3 78.7 384.7 118 383.5C157.3 382.3 196.7 386.7 236.2 391C275.7 395.3 315.3 399.7 354.8 399.7C394.3 399.7 433.7 395.3 473 392.2C512.3 389 551.7 387 591 384.8C630.3 382.7 669.7 380.3 709 381.3C748.3 382.3 787.7 386.7 827 384.5C866.3 382.3 905.7 373.7 945.2 375.8C984.7 378 1024.3 391 1063.8 391C1103.3 391 1142.7 378 1182 374.8C1221.3 371.7 1260.7 378.3 1280.3 381.7L1300 385L1300 226L1280.3 229.3C1260.7 232.7 1221.3 239.3 1182 244.8C1142.7 250.3 1103.3 254.7 1063.8 256.8C1024.3 259 984.7 259 945.2 259C905.7 259 866.3 259 827 260.2C787.7 261.3 748.3 263.7 709 260.5C669.7 257.3 630.3 248.7 591 248.7C551.7 248.7 512.3 257.3 473 260.5C433.7 263.7 394.3 261.3 354.8 259.2C315.3 257 275.7 255 236.2 251.8C196.7 248.7 157.3 244.3 118 244.3C78.7 244.3 39.3 248.7 19.7 250.8L0 253Z" fill="#3ca242"></path><path d="M0 476L19.7 477C39.3 478 78.7 480 118 477.8C157.3 475.7 196.7 469.3 236.2 468.3C275.7 467.3 315.3 471.7 354.8 476C394.3 480.3 433.7 484.7 473 484.7C512.3 484.7 551.7 480.3 591 478.2C630.3 476 669.7 476 709 474.8C748.3 473.7 787.7 471.3 827 469.2C866.3 467 905.7 465 945.2 466.2C984.7 467.3 1024.3 471.7 1063.8 471.7C1103.3 471.7 1142.7 467.3 1182 467.3C1221.3 467.3 1260.7 471.7 1280.3 473.8L1300 476L1300 383L1280.3 379.7C1260.7 376.3 1221.3 369.7 1182 372.8C1142.7 376 1103.3 389 1063.8 389C1024.3 389 984.7 376 945.2 373.8C905.7 371.7 866.3 380.3 827 382.5C787.7 384.7 748.3 380.3 709 379.3C669.7 378.3 630.3 380.7 591 382.8C551.7 385 512.3 387 473 390.2C433.7 393.3 394.3 397.7 354.8 397.7C315.3 397.7 275.7 393.3 236.2 389C196.7 384.7 157.3 380.3 118 381.5C78.7 382.7 39.3 389.3 19.7 392.7L0 396Z" fill="#399b3f"></path><path d="M0 521L19.7 521C39.3 521 78.7 521 118 520C157.3 519 196.7 517 236.2 516C275.7 515 315.3 515 354.8 518.2C394.3 521.3 433.7 527.7 473 528.7C512.3 529.7 551.7 525.3 591 522.2C630.3 519 669.7 517 709 514.8C748.3 512.7 787.7 510.3 827 510.3C866.3 510.3 905.7 512.7 945.2 517C984.7 521.3 1024.3 527.7 1063.8 526.5C1103.3 525.3 1142.7 516.7 1182 513.5C1221.3 510.3 1260.7 512.7 1280.3 513.8L1300 515L1300 474L1280.3 471.8C1260.7 469.7 1221.3 465.3 1182 465.3C1142.7 465.3 1103.3 469.7 1063.8 469.7C1024.3 469.7 984.7 465.3 945.2 464.2C905.7 463 866.3 465 827 467.2C787.7 469.3 748.3 471.7 709 472.8C669.7 474 630.3 474 591 476.2C551.7 478.3 512.3 482.7 473 482.7C433.7 482.7 394.3 478.3 354.8 474C315.3 469.7 275.7 465.3 236.2 466.3C196.7 467.3 157.3 473.7 118 475.8C78.7 478 39.3 476 19.7 475L0 474Z" fill="#3ca242"></path><path d="M0 567L19.7 567C39.3 567 78.7 567 118 563.7C157.3 560.3 196.7 553.7 236.2 550.3C275.7 547 315.3 547 354.8 550.3C394.3 553.7 433.7 560.3 473 563.7C512.3 567 551.7 567 591 564.8C630.3 562.7 669.7 558.3 709 556.2C748.3 554 787.7 554 827 554C866.3 554 905.7 554 945.2 557.2C984.7 560.3 1024.3 566.7 1063.8 567.7C1103.3 568.7 1142.7 564.3 1182 560C1221.3 555.7 1260.7 551.3 1280.3 549.2L1300 547L1300 513L1280.3 511.8C1260.7 510.7 1221.3 508.3 1182 511.5C1142.7 514.7 1103.3 523.3 1063.8 524.5C1024.3 525.7 984.7 519.3 945.2 515C905.7 510.7 866.3 508.3 827 508.3C787.7 508.3 748.3 510.7 709 512.8C669.7 515 630.3 517 591 520.2C551.7 523.3 512.3 527.7 473 526.7C433.7 525.7 394.3 519.3 354.8 516.2C315.3 513 275.7 513 236.2 514C196.7 515 157.3 517 118 518C78.7 519 39.3 519 19.7 519L0 519Z" fill="#4ac352"></path><path d="M0 619L19.7 617.8C39.3 616.7 78.7 614.3 118 613.2C157.3 612 196.7 612 236.2 612C275.7 612 315.3 612 354.8 612C394.3 612 433.7 612 473 612C512.3 612 551.7 612 591 613.2C630.3 614.3 669.7 616.7 709 616.7C748.3 616.7 787.7 614.3 827 613.2C866.3 612 905.7 612 945.2 613.2C984.7 614.3 1024.3 616.7 1063.8 617.8C1103.3 619 1142.7 619 1182 617.8C1221.3 616.7 1260.7 614.3 1280.3 613.2L1300 612L1300 545L1280.3 547.2C1260.7 549.3 1221.3 553.7 1182 558C1142.7 562.3 1103.3 566.7 1063.8 565.7C1024.3 564.7 984.7 558.3 945.2 555.2C905.7 552 866.3 552 827 552C787.7 552 748.3 552 709 554.2C669.7 556.3 630.3 560.7 591 562.8C551.7 565 512.3 565 473 561.7C433.7 558.3 394.3 551.7 354.8 548.3C315.3 545 275.7 545 236.2 548.3C196.7 551.7 157.3 558.3 118 561.7C78.7 565 39.3 565 19.7 565L0 565Z" fill="#69d76c"></path><path d="M0 651L19.7 651C39.3 651 78.7 651 118 651C157.3 651 196.7 651 236.2 651C275.7 651 315.3 651 354.8 651C394.3 651 433.7 651 473 651C512.3 651 551.7 651 591 651C630.3 651 669.7 651 709 651C748.3 651 787.7 651 827 651C866.3 651 905.7 651 945.2 651C984.7 651 1024.3 651 1063.8 651C1103.3 651 1142.7 651 1182 651C1221.3 651 1260.7 651 1280.3 651L1300 651L1300 610L1280.3 611.2C1260.7 612.3 1221.3 614.7 1182 615.8C1142.7 617 1103.3 617 1063.8 615.8C1024.3 614.7 984.7 612.3 945.2 611.2C905.7 610 866.3 610 827 611.2C787.7 612.3 748.3 614.7 709 614.7C669.7 614.7 630.3 612.3 591 611.2C551.7 610 512.3 610 473 610C433.7 610 394.3 610 354.8 610C315.3 610 275.7 610 236.2 610C196.7 610 157.3 610 118 611.2C78.7 612.3 39.3 614.7 19.7 615.8L0 617Z" fill="#8de08d"></path></svg>