<svg id="visual" viewBox="0 0 1300 150" width="1300" height="150" xmlns="http://www.w3.org/2000/svg" xmlns:xlink="http://www.w3.org/1999/xlink" version="1.1"><rect x="0" y="0" width="1300" height="150" fill="#F3FCF3"></rect><path d="M0 61L19.7 55.3C39.3 49.7 78.7 38.3 118 38.2C157.3 38 196.7 49 236.2 52.3C275.7 55.7 315.3 51.3 354.8 50.5C394.3 49.7 433.7 52.3 473 49.3C512.3 46.3 551.7 37.7 591 39.3C630.3 41 669.7 53 709 52.2C748.3 51.3 787.7 37.7 827 31C866.3 24.3 905.7 24.7 945.2 31.7C984.7 38.7 1024.3 52.3 1063.8 53.2C1103.3 54 1142.7 42 1182 41.2C1221.3 40.3 1260.7 50.7 1280.3 55.8L1300 61L1300 151L1280.3 151C1260.7 151 1221.3 151 1182 151C1142.7 151 1103.3 151 1063.8 151C1024.3 151 984.7 151 945.2 151C905.7 151 866.3 151 827 151C787.7 151 748.3 151 709 151C669.7 151 630.3 151 591 151C551.7 151 512.3 151 473 151C433.7 151 394.3 151 354.8 151C315.3 151 275.7 151 236.2 151C196.7 151 157.3 151 118 151C78.7 151 39.3 151 19.7 151L0 151Z" fill="#c0e6c0"></path><path d="M0 82L19.7 78.2C39.3 74.3 78.7 66.7 118 65.5C157.3 64.3 196.7 69.7 236.2 72.5C275.7 75.3 315.3 75.7 354.8 73.2C394.3 70.7 433.7 65.3 473 64.2C512.3 63 551.7 66 591 67.7C630.3 69.3 669.7 69.7 709 73C748.3 76.3 787.7 82.7 827 86.2C866.3 89.7 905.7 90.3 945.2 84C984.7 77.7 1024.3 64.3 1063.8 58.2C1103.3 52 1142.7 53 1182 55.8C1221.3 58.7 1260.7 63.3 1280.3 65.7L1300 68L1300 151L1280.3 151C1260.7 151 1221.3 151 1182 151C1142.7 151 1103.3 151 1063.8 151C1024.3 151 984.7 151 945.2 151C905.7 151 866.3 151 827 151C787.7 151 748.3 151 709 151C669.7 151 630.3 151 591 151C551.7 151 512.3 151 473 151C433.7 151 394.3 151 354.8 151C315.3 151 275.7 151 236.2 151C196.7 151 157.3 151 118 151C78.7 151 39.3 151 19.7 151L0 151Z" fill="#afe4af"></path><path d="M0 84L19.7 88.5C39.3 93 78.7 102 118 101.7C157.3 101.3 196.7 91.7 236.2 86.5C275.7 81.3 315.3 80.7 354.8 85.8C394.3 91 433.7 102 473 105.7C512.3 109.3 551.7 105.7 591 101.2C630.3 96.7 669.7 91.3 709 88.2C748.3 85 787.7 84 827 88C866.3 92 905.7 101 945.2 104.7C984.7 108.3 1024.3 106.7 1063.8 102.5C1103.3 98.3 1142.7 91.7 1182 92.2C1221.3 92.7 1260.7 100.3 1280.3 104.2L1300 108L1300 151L1280.3 151C1260.7 151 1221.3 151 1182 151C1142.7 151 1103.3 151 1063.8 151C1024.3 151 984.7 151 945.2 151C905.7 151 866.3 151 827 151C787.7 151 748.3 151 709 151C669.7 151 630.3 151 591 151C551.7 151 512.3 151 473 151C433.7 151 394.3 151 354.8 151C315.3 151 275.7 151 236.2 151C196.7 151 157.3 151 118 151C78.7 151 39.3 151 19.7 151L0 151Z" fill="#9fe29e"></path><path d="M0 106L19.7 106.5C39.3 107 78.7 108 118 112C157.3 116 196.7 123 236.2 126.8C275.7 130.7 315.3 131.3 354.8 131.7C394.3 132 433.7 132 473 128.3C512.3 124.7 551.7 117.3 591 114.7C630.3 112 669.7 114 709 116C748.3 118 787.7 120 827 119.3C866.3 118.7 905.7 115.3 945.2 117.2C984.7 119 1024.3 126 1063.8 129C1103.3 132 1142.7 131 1182 130.3C1221.3 129.7 1260.7 129.3 1280.3 129.2L1300 129L1300 151L1280.3 151C1260.7 151 1221.3 151 1182 151C1142.7 151 1103.3 151 1063.8 151C1024.3 151 984.7 151 945.2 151C905.7 151 866.3 151 827 151C787.7 151 748.3 151 709 151C669.7 151 630.3 151 591 151C551.7 151 512.3 151 473 151C433.7 151 394.3 151 354.8 151C315.3 151 275.7 151 236.2 151C196.7 151 157.3 151 118 151C78.7 151 39.3 151 19.7 151L0 151Z" fill="#8de08d"></path></svg>