<svg id="visual" viewBox="0 0 960 240" width="960" height="240" xmlns="http://www.w3.org/2000/svg" xmlns:xlink="http://www.w3.org/1999/xlink" version="1.1"><path d="M0 51L13.3 54.7C26.7 58.3 53.3 65.7 80 65.3C106.7 65 133.3 57 160 55.2C186.7 53.3 213.3 57.7 240 60C266.7 62.3 293.3 62.7 320 64.3C346.7 66 373.3 69 400 67C426.7 65 453.3 58 480 59.8C506.7 61.7 533.3 72.3 560 75.3C586.7 78.3 613.3 73.7 640 73.3C666.7 73 693.3 77 720 71C746.7 65 773.3 49 800 46C826.7 43 853.3 53 880 60.2C906.7 67.3 933.3 71.7 946.7 73.8L960 76L960 241L946.7 241C933.3 241 906.7 241 880 241C853.3 241 826.7 241 800 241C773.3 241 746.7 241 720 241C693.3 241 666.7 241 640 241C613.3 241 586.7 241 560 241C533.3 241 506.7 241 480 241C453.3 241 426.7 241 400 241C373.3 241 346.7 241 320 241C293.3 241 266.7 241 240 241C213.3 241 186.7 241 160 241C133.3 241 106.7 241 80 241C53.3 241 26.7 241 13.3 241L0 241Z" fill="#50d158"></path><path d="M0 95L13.3 99.3C26.7 103.7 53.3 112.3 80 115.2C106.7 118 133.3 115 160 110.8C186.7 106.7 213.3 101.3 240 94.8C266.7 88.3 293.3 80.7 320 77C346.7 73.3 373.3 73.7 400 76.8C426.7 80 453.3 86 480 91.3C506.7 96.7 533.3 101.3 560 103C586.7 104.7 613.3 103.3 640 98.3C666.7 93.3 693.3 84.7 720 82.2C746.7 79.7 773.3 83.3 800 87.5C826.7 91.7 853.3 96.3 880 96.3C906.7 96.3 933.3 91.7 946.7 89.3L960 87L960 241L946.7 241C933.3 241 906.7 241 880 241C853.3 241 826.7 241 800 241C773.3 241 746.7 241 720 241C693.3 241 666.7 241 640 241C613.3 241 586.7 241 560 241C533.3 241 506.7 241 480 241C453.3 241 426.7 241 400 241C373.3 241 346.7 241 320 241C293.3 241 266.7 241 240 241C213.3 241 186.7 241 160 241C133.3 241 106.7 241 80 241C53.3 241 26.7 241 13.3 241L0 241Z" fill="#80dd80"></path><path d="M0 108L13.3 110.2C26.7 112.3 53.3 116.7 80 121.3C106.7 126 133.3 131 160 130.5C186.7 130 213.3 124 240 121.5C266.7 119 293.3 120 320 122.5C346.7 125 373.3 129 400 130.5C426.7 132 453.3 131 480 129.8C506.7 128.7 533.3 127.3 560 128.3C586.7 129.3 613.3 132.7 640 131.5C666.7 130.3 693.3 124.7 720 119.8C746.7 115 773.3 111 800 115C826.7 119 853.3 131 880 132.3C906.7 133.7 933.3 124.3 946.7 119.7L960 115L960 241L946.7 241C933.3 241 906.7 241 880 241C853.3 241 826.7 241 800 241C773.3 241 746.7 241 720 241C693.3 241 666.7 241 640 241C613.3 241 586.7 241 560 241C533.3 241 506.7 241 480 241C453.3 241 426.7 241 400 241C373.3 241 346.7 241 320 241C293.3 241 266.7 241 240 241C213.3 241 186.7 241 160 241C133.3 241 106.7 241 80 241C53.3 241 26.7 241 13.3 241L0 241Z" fill="#a8e8a7"></path><path d="M0 150L13.3 153.8C26.7 157.7 53.3 165.3 80 169C106.7 172.7 133.3 172.3 160 169.7C186.7 167 213.3 162 240 158.5C266.7 155 293.3 153 320 155.3C346.7 157.7 373.3 164.3 400 167.3C426.7 170.3 453.3 169.7 480 171.8C506.7 174 533.3 179 560 177.7C586.7 176.3 613.3 168.7 640 163.2C666.7 157.7 693.3 154.3 720 154C746.7 153.7 773.3 156.3 800 162.5C826.7 168.7 853.3 178.3 880 180.2C906.7 182 933.3 176 946.7 173L960 170L960 241L946.7 241C933.3 241 906.7 241 880 241C853.3 241 826.7 241 800 241C773.3 241 746.7 241 720 241C693.3 241 666.7 241 640 241C613.3 241 586.7 241 560 241C533.3 241 506.7 241 480 241C453.3 241 426.7 241 400 241C373.3 241 346.7 241 320 241C293.3 241 266.7 241 240 241C213.3 241 186.7 241 160 241C133.3 241 106.7 241 80 241C53.3 241 26.7 241 13.3 241L0 241Z" fill="#cef2cd"></path><path d="M0 210L13.3 207.5C26.7 205 53.3 200 80 199.3C106.7 198.7 133.3 202.3 160 200C186.7 197.7 213.3 189.3 240 190.5C266.7 191.7 293.3 202.3 320 207.5C346.7 212.7 373.3 212.3 400 208.2C426.7 204 453.3 196 480 194.3C506.7 192.7 533.3 197.3 560 200.5C586.7 203.7 613.3 205.3 640 207.7C666.7 210 693.3 213 720 209.8C746.7 206.7 773.3 197.3 800 195.8C826.7 194.3 853.3 200.7 880 204C906.7 207.3 933.3 207.7 946.7 207.8L960 208L960 241L946.7 241C933.3 241 906.7 241 880 241C853.3 241 826.7 241 800 241C773.3 241 746.7 241 720 241C693.3 241 666.7 241 640 241C613.3 241 586.7 241 560 241C533.3 241 506.7 241 480 241C453.3 241 426.7 241 400 241C373.3 241 346.7 241 320 241C293.3 241 266.7 241 240 241C213.3 241 186.7 241 160 241C133.3 241 106.7 241 80 241C53.3 241 26.7 241 13.3 241L0 241Z" fill="#f3fcf3"></path></svg>