<svg id="visual" viewBox="0 0 900 600" width="900" height="600" xmlns="http://www.w3.org/2000/svg" xmlns:xlink="http://www.w3.org/1999/xlink" version="1.1"><path d="M0 431L12.5 434.8C25 438.7 50 446.3 75 451.3C100 456.3 125 458.7 150 457.5C175 456.3 200 451.7 225 452.5C250 453.3 275 459.7 300 460.7C325 461.7 350 457.3 375 451.2C400 445 425 437 450 436.3C475 435.7 500 442.3 525 442.5C550 442.7 575 436.3 600 440.8C625 445.3 650 460.7 675 465.5C700 470.3 725 464.7 750 456.2C775 447.7 800 436.3 825 432.3C850 428.3 875 431.7 887.5 433.3L900 435L900 601L887.5 601C875 601 850 601 825 601C800 601 775 601 750 601C725 601 700 601 675 601C650 601 625 601 600 601C575 601 550 601 525 601C500 601 475 601 450 601C425 601 400 601 375 601C350 601 325 601 300 601C275 601 250 601 225 601C200 601 175 601 150 601C125 601 100 601 75 601C50 601 25 601 12.5 601L0 601Z" fill="#50d158"></path><path d="M0 438L12.5 442.3C25 446.7 50 455.3 75 461.5C100 467.7 125 471.3 150 476.8C175 482.3 200 489.7 225 485.8C250 482 275 467 300 462.8C325 458.7 350 465.3 375 470.8C400 476.3 425 480.7 450 475.8C475 471 500 457 525 451C550 445 575 447 600 448.7C625 450.3 650 451.7 675 458C700 464.3 725 475.7 750 479.8C775 484 800 481 825 477.3C850 473.7 875 469.3 887.5 467.2L900 465L900 601L887.5 601C875 601 850 601 825 601C800 601 775 601 750 601C725 601 700 601 675 601C650 601 625 601 600 601C575 601 550 601 525 601C500 601 475 601 450 601C425 601 400 601 375 601C350 601 325 601 300 601C275 601 250 601 225 601C200 601 175 601 150 601C125 601 100 601 75 601C50 601 25 601 12.5 601L0 601Z" fill="#80dd80"></path><path d="M0 472L12.5 478.2C25 484.3 50 496.7 75 497C100 497.3 125 485.7 150 485.2C175 484.7 200 495.3 225 500.5C250 505.7 275 505.3 300 503.8C325 502.3 350 499.7 375 494.8C400 490 425 483 450 478.5C475 474 500 472 525 480.7C550 489.3 575 508.7 600 509.3C625 510 650 492 675 490.8C700 489.7 725 505.3 750 510.2C775 515 800 509 825 503.7C850 498.3 875 493.7 887.5 491.3L900 489L900 601L887.5 601C875 601 850 601 825 601C800 601 775 601 750 601C725 601 700 601 675 601C650 601 625 601 600 601C575 601 550 601 525 601C500 601 475 601 450 601C425 601 400 601 375 601C350 601 325 601 300 601C275 601 250 601 225 601C200 601 175 601 150 601C125 601 100 601 75 601C50 601 25 601 12.5 601L0 601Z" fill="#a8e8a7"></path><path d="M0 505L12.5 507.5C25 510 50 515 75 516.3C100 517.7 125 515.3 150 516C175 516.7 200 520.3 225 526.8C250 533.3 275 542.7 300 547.3C325 552 350 552 375 552.2C400 552.3 425 552.7 450 545C475 537.3 500 521.7 525 514.8C550 508 575 510 600 512.5C625 515 650 518 675 517.2C700 516.3 725 511.7 750 512.8C775 514 800 521 825 526.7C850 532.3 875 536.7 887.5 538.8L900 541L900 601L887.5 601C875 601 850 601 825 601C800 601 775 601 750 601C725 601 700 601 675 601C650 601 625 601 600 601C575 601 550 601 525 601C500 601 475 601 450 601C425 601 400 601 375 601C350 601 325 601 300 601C275 601 250 601 225 601C200 601 175 601 150 601C125 601 100 601 75 601C50 601 25 601 12.5 601L0 601Z" fill="#cef2cd"></path><path d="M0 557L12.5 554.8C25 552.7 50 548.3 75 550.2C100 552 125 560 150 564.3C175 568.7 200 569.3 225 566C250 562.7 275 555.3 300 550.7C325 546 350 544 375 543.7C400 543.3 425 544.7 450 547.3C475 550 500 554 525 558.5C550 563 575 568 600 570.5C625 573 650 573 675 573.7C700 574.3 725 575.7 750 573C775 570.3 800 563.7 825 561.5C850 559.3 875 561.7 887.5 562.8L900 564L900 601L887.5 601C875 601 850 601 825 601C800 601 775 601 750 601C725 601 700 601 675 601C650 601 625 601 600 601C575 601 550 601 525 601C500 601 475 601 450 601C425 601 400 601 375 601C350 601 325 601 300 601C275 601 250 601 225 601C200 601 175 601 150 601C125 601 100 601 75 601C50 601 25 601 12.5 601L0 601Z" fill="#f3fcf3"></path></svg>